# Blender v2.74 (sub 0) OBJ File: 'ColorfulCube.blend'
# www.blender.org
mtllib ColorfulCube.mtl
o ColorfulCube_Cube
v 0.500000 0.000000 -0.500000
v 0.500000 0.000000 0.500000
v -0.500000 0.000000 0.500000
v -0.500000 0.000000 -0.500000
v 0.500000 1.000000 -0.500000
v 0.500000 1.000000 0.500000
v -0.500000 1.000000 0.500000
v -0.500000 1.000000 -0.500000
vt 0.316667 0.475000
vt 0.016667 0.475000
vt 0.016667 0.025000
vt 0.316667 0.025000
vt 0.316667 0.975000
vt 0.016667 0.975000
vt 0.016667 0.525000
vt 0.316666 0.525000
vt 0.350000 0.525000
vt 0.650000 0.525000
vt 0.650000 0.975000
vt 0.350000 0.975000
vt 0.983333 0.025000
vt 0.983333 0.475000
vt 0.683333 0.475000
vt 0.683333 0.025000
vt 0.349986 0.475000
vt 0.350014 0.025000
vt 0.650014 0.025000
vt 0.649986 0.475000
vt 0.983333 0.525000
vt 0.983333 0.975000
vt 0.683333 0.975000
vt 0.683333 0.525000
vn 0.000000 -1.000000 0.000000
vn 0.000000 1.000000 0.000000
vn 1.000000 0.000000 0.000000
vn -0.000000 -0.000000 1.000000
vn -1.000000 -0.000000 -0.000000
vn 0.000000 0.000000 -1.000000
usemtl Material
s off
f 1/1/1 2/2/1 3/3/1 4/4/1
f 5/5/2 8/6/2 7/7/2 6/8/2
f 1/9/3 5/10/3 6/11/3 2/12/3
f 2/13/4 6/14/4 7/15/4 3/16/4
f 3/17/5 7/18/5 8/19/5 4/20/5
f 5/21/6 1/22/6 4/23/6 8/24/6
